<svg width="201" height="42" viewBox="0 0 201 42" fill="none" xmlns="http://www.w3.org/2000/svg">
<path d="M31.7116 0V30.5355H28.6153V6.10759L16.6198 26.6527H15.0942L3.09625 6.23744V30.5355H0V0H2.66177L15.9232 22.64L29.0523 0H31.714H31.7116Z" fill="white"/>
<path d="M89.9458 38.4802V41.2718H64.9087V39.047L85.1492 13.5279H65.2133V10.7363H89.424V12.9611L69.2285 38.4802H89.9483H89.9458Z" fill="white"/>
<path d="M124.886 38.4802V41.2718H99.8491V39.047L120.09 13.5279H100.154V10.7363H124.364V12.9611L104.169 38.4802H124.889H124.886Z" fill="white"/>
<path d="M196.467 41.2718L189.488 31.4562C188.704 31.5436 187.887 31.586 187.046 31.586H178.846V41.2693H175.617V10.7363H187.046C190.941 10.7363 193.995 11.6677 196.207 13.5279C198.417 15.3882 199.523 17.9476 199.523 21.2061C199.523 23.5907 198.919 25.6058 197.713 27.2488C196.507 28.8918 194.784 30.0779 192.544 30.8045L200.003 41.2743H196.469L196.467 41.2718ZM193.893 26.8343C195.491 25.4959 196.292 23.6207 196.292 21.2061C196.292 18.7916 195.493 16.8364 193.893 15.513C192.292 14.1896 189.98 13.5279 186.956 13.5279H178.843V28.8394H186.956C189.98 28.8394 192.292 28.1702 193.893 26.8318V26.8343Z" fill="white"/>
<path d="M150.053 10.7363H146.869L132.911 41.2718H136.27L139.933 33.1142L141.111 30.4974L148.44 14.0948L155.768 30.4974L156.944 33.1142L160.61 41.2718H164.011L150.053 10.7363Z" fill="white"/>
<path d="M51.4278 27.3244V0H48.2017V27.3244V30.5355H51.4278H156.473V27.3244H51.4278Z" fill="white"/>
</svg>
